<?xml version="1.0" standalone="no"?>
<!DOCTYPE svg PUBLIC "-//W3C//DTD SVG 20010904//EN"
 "http://www.w3.org/TR/2001/REC-SVG-20010904/DTD/svg10.dtd">
<svg version="1.0" xmlns="http://www.w3.org/2000/svg"
 width="1030.000000pt" height="1030.000000pt" viewBox="0 0 1030.000000 1030.000000"
 preserveAspectRatio="xMidYMid meet">
<metadata>
Created by potrace 1.14, written by Peter Selinger 2001-2017
</metadata>
<g transform="translate(0.000000,1030.000000) scale(0.100000,-0.100000)"
fill="#000000" stroke="none">
<path d="M5230 10158 c-60 -17 -228 -147 -384 -298 -179 -172 -400 -438 -501
-601 -122 -196 -255 -485 -341 -737 -3 -11 -9 -10 -27 5 -13 10 -129 102 -257
206 -343 275 -452 345 -651 415 -159 56 -277 77 -444 77 -164 0 -211 -10 -257
-53 -32 -30 -43 -69 -28 -107 10 -26 190 -206 354 -354 38 -34 171 -144 295
-244 411 -331 531 -474 668 -795 29 -68 53 -127 53 -132 0 -5 -25 -47 -55 -94
-117 -180 -200 -406 -240 -661 -22 -137 -31 -506 -16 -675 22 -244 62 -532 97
-699 34 -159 88 -342 117 -398 15 -27 14 -28 -62 -108 -188 -199 -284 -401
-284 -595 0 -198 104 -346 290 -412 121 -43 330 -33 488 22 46 17 85 30 88 30
2 0 7 -141 11 -312 3 -172 13 -410 20 -528 l13 -215 -62 -80 c-62 -79 -148
-206 -260 -380 -31 -49 -102 -153 -157 -230 -112 -158 -422 -628 -514 -780
-131 -216 -170 -323 -161 -445 5 -77 36 -169 73 -217 50 -66 192 -164 302
-209 235 -95 1032 -164 1892 -164 628 0 940 21 1199 81 153 35 328 126 422
219 78 78 104 150 104 285 -1 115 -14 154 -106 321 -66 120 -408 643 -557 854
-60 85 -136 196 -167 245 -110 171 -198 300 -259 380 l-62 80 13 200 c6 110
15 344 19 521 l7 320 77 -27 c127 -45 295 -61 411 -39 81 16 173 63 235 122
89 84 125 171 125 307 0 199 -96 399 -294 608 l-69 72 41 105 c114 291 204
869 205 1311 0 129 -6 274 -13 330 -44 347 -139 595 -328 854 l-18 24 50 -6
c101 -14 271 -71 390 -132 165 -84 271 -156 395 -264 58 -51 116 -97 130 -103
40 -15 92 6 139 57 53 58 54 95 7 191 -77 153 -241 350 -493 594 -191 185
-361 284 -570 333 l-93 22 77 66 c206 174 366 258 543 285 65 10 100 31 116
71 20 47 10 86 -32 123 -19 16 -36 30 -37 30 -1 0 -63 9 -137 21 -174 26 -572
37 -745 20 -341 -34 -686 -117 -902 -216 l-73 -34 0 57 c0 132 32 417 65 586
73 373 114 490 231 665 71 107 78 125 64 167 -22 66 -81 88 -170 62z m-286
-555 c-34 -109 -49 -197 -88 -513 -50 -392 -60 -548 -53 -811 l6 -227 -57 -7
c-166 -20 -422 -88 -551 -146 l-64 -29 6 172 c8 242 38 372 147 636 118 288
262 535 430 735 74 88 238 267 245 267 2 0 -8 -35 -21 -77z m-2106 -609 c157
-30 293 -89 448 -192 134 -91 488 -378 578 -470 l79 -80 -7 -124 c-3 -67 -7
-183 -7 -256 -2 -130 -2 -133 -28 -153 l-26 -20 -9 23 c-38 96 -135 283 -187
358 -130 190 -231 288 -639 618 -96 77 -218 182 -270 231 l-95 91 45 -6 c25
-3 78 -12 118 -20z m3552 -342 c-138 -95 -441 -358 -485 -421 -29 -42 -32 -79
-10 -121 24 -46 49 -54 200 -61 288 -15 431 -86 692 -343 84 -82 152 -151 150
-152 -1 -2 -65 28 -142 67 -88 43 -187 83 -265 106 -118 35 -133 37 -265 37
-83 0 -151 -5 -166 -11 -23 -10 -31 -8 -60 13 -58 44 -249 135 -353 169 -167
54 -313 83 -622 121 l-41 5 -7 67 c-3 37 -6 104 -6 149 l0 81 80 47 c153 90
314 146 553 195 280 56 368 66 602 68 163 1 169 0 145 -16z m-1194 -807 c246
-33 439 -90 623 -186 206 -106 345 -248 446 -454 111 -229 153 -413 171 -755
13 -246 -45 -762 -122 -1089 -25 -108 -82 -291 -90 -291 -3 0 -39 23 -80 51
-91 61 -201 115 -253 124 l-39 6 35 97 c45 125 74 249 118 502 59 333 59 522
-1 749 -55 212 -143 340 -277 402 -67 31 -80 34 -173 34 -94 0 -103 -2 -141
-28 -22 -15 -65 -63 -96 -105 -139 -194 -214 -389 -282 -735 -23 -117 -35
-153 -35 -107 0 47 -61 320 -96 431 -41 128 -113 279 -184 384 -87 127 -144
165 -247 165 -150 -1 -283 -71 -358 -190 -40 -64 -92 -200 -116 -307 -16 -72
-23 -142 -26 -263 -4 -158 -3 -176 36 -404 44 -254 79 -413 116 -513 l22 -61
-62 -21 c-68 -22 -161 -73 -243 -133 l-52 -39 -9 25 c-40 103 -98 344 -125
516 -48 298 -60 443 -60 715 -1 357 24 519 115 748 109 277 257 443 506 570
278 142 655 204 979 162z m-661 -1058 c59 -62 148 -247 190 -395 78 -276 102
-448 130 -928 l7 -110 -99 0 c-80 1 -107 -3 -145 -21 -57 -26 -131 -93 -148
-133 -7 -17 -16 -30 -21 -30 -13 0 -86 131 -119 213 -70 175 -150 589 -157
815 -6 171 4 260 44 387 56 179 117 243 232 244 40 1 49 -4 86 -42z m1131 16
c75 -38 136 -169 170 -365 33 -192 -3 -528 -97 -898 -40 -155 -159 -402 -176
-362 -13 32 -72 99 -110 124 -59 40 -153 62 -230 54 l-63 -7 0 35 c0 82 22
401 36 515 33 276 103 560 175 703 56 113 108 193 139 212 32 21 104 16 156
-11z m-1384 -1746 c154 -238 318 -352 457 -317 117 29 206 119 256 259 l13 36
10 -25 c29 -75 59 -126 100 -171 117 -130 270 -138 417 -22 40 32 145 154 194
226 17 26 38 47 46 47 30 0 224 -109 325 -182 194 -140 363 -336 420 -485 27
-70 38 -195 20 -247 -17 -52 -54 -93 -114 -124 -48 -25 -59 -27 -171 -26 -107
1 -130 4 -212 32 -98 33 -285 121 -319 150 -20 17 -20 17 32 110 l52 94 63
-94 c34 -51 70 -98 78 -105 9 -7 35 -13 59 -13 56 0 92 35 92 91 0 43 -30 95
-141 246 -80 108 -105 127 -168 127 -74 0 -93 -20 -176 -183 -86 -169 -209
-365 -329 -524 -86 -115 -260 -320 -314 -370 l-30 -29 -70 99 c-187 261 -377
621 -456 863 -49 149 -61 172 -108 196 -47 25 -97 17 -178 -27 -118 -64 -226
-161 -277 -247 -46 -77 -7 -152 79 -152 37 0 46 6 120 85 84 89 144 134 158
119 4 -5 16 -34 25 -64 10 -30 28 -78 41 -106 l23 -52 -53 -35 c-203 -135
-470 -201 -616 -152 -66 22 -143 95 -153 144 -41 204 90 446 361 669 119 98
340 232 382 231 8 0 36 -33 62 -72z m169 -1099 c96 -178 171 -295 285 -448 95
-129 155 -193 192 -204 12 -4 34 0 51 9 62 31 407 432 550 637 l75 107 29 -17
c16 -9 34 -23 40 -31 16 -19 16 -365 -2 -853 l-13 -387 77 -98 c68 -86 132
-180 303 -443 l42 -65 -42 -8 c-25 -5 -86 -4 -152 3 -234 24 -232 24 -366 -9
-173 -44 -283 -50 -378 -21 -86 26 -136 23 -302 -17 -63 -15 -137 -26 -185
-27 -74 -1 -86 2 -159 38 l-79 40 -121 -24 c-254 -49 -261 -49 -341 2 -11 7
-21 14 -23 14 -8 4 331 506 386 574 l61 74 3 86 c2 47 -3 186 -10 310 -14 252
-21 846 -10 873 4 9 9 17 12 17 2 0 37 -60 77 -132z m1419 -1889 c90 -9 147
-10 199 -2 l73 9 56 -75 c31 -42 79 -107 107 -146 70 -95 97 -136 200 -305
311 -509 317 -522 297 -620 -15 -69 -34 -95 -109 -146 -222 -152 -579 -192
-1613 -181 -526 6 -783 16 -920 36 -36 6 -136 17 -223 26 -173 17 -370 53
-460 84 -77 27 -191 103 -217 146 -12 19 -24 59 -27 88 -10 94 35 185 267 542
64 99 134 209 154 245 21 36 53 83 70 105 18 22 56 75 85 118 58 87 72 93 133
51 56 -39 134 -42 287 -10 68 14 138 26 156 26 17 0 61 -15 96 -32 61 -31 70
-33 169 -32 72 0 130 7 185 22 158 42 207 45 293 21 104 -29 240 -22 402 20
123 32 122 32 340 10z"/>
</g>
</svg>
